<?xml version="1.0" ?>
<!-- Uploaded to: SVG Repo, www.svgrepo.com, Generator: SVG Repo Mixer Tools -->
<svg width="800px" height="800px" viewBox="0 0 50 50" id="Message_And_Communication_Icons" version="1.1" xml:space="preserve" xmlns="http://www.w3.org/2000/svg" xmlns:xlink="http://www.w3.org/1999/xlink">
<g>
<g>
<g>
<g>
<polygon points="14.2,28 15.1,27 13.2,27 16.2,23.7 16.2,12.8 45.6,12.8 45.6,10.7 4.4,10.7 4.4,29.8       45.6,29.8 45.6,28     " style="fill:#4DE0F9;"/>
</g>
</g>
<g>
<g>
<rect height="1.2" style="fill:#0D5FC3;" width="2" x="24" y="30.9"/>
</g>
</g>
<g>
<g>
<polygon points="29.3,39.8 29.3,34.9 26.1,34.9 26.1,39.8 23.9,39.8 23.9,41 26.1,41 29.3,41 34.8,41       34.8,39.8     " style="fill:#4DE0F9;"/>
</g>
</g>
<g>
<g>
<g>
<polygon points="46.2,34.5 3.8,34.5 3.8,8.4 46.2,8.4 46.2,11.1 45,11.1 45,9.6 5,9.6 5,33.3 45,33.3        45,28.7 46.2,28.7      " style="fill:#0D5FC3;"/>
</g>
</g>
<g>
<g>
<rect height="6.1" style="fill:#0D5FC3;" width="1.2" x="21.3" y="33.9"/>
</g>
</g>
<g>
<g>
<rect height="6.1" style="fill:#0D5FC3;" width="1.2" x="27.5" y="33.9"/>
</g>
</g>
<g>
<g>
<rect height="1.2" style="fill:#0D5FC3;" width="18.8" x="15.6" y="39.4"/>
</g>
</g>
</g>
<g>
<g>
<rect height="1.2" style="fill:#0D5FC3;" width="1.3" x="24.4" y="10.3"/>
</g>
</g>
</g>
<g>
<g>
<g>
<path d="M47.5,27.6H11.8l3.8-4.2V12.2h31.8V27.6z M14.5,26.4h31.7v-13H16.8v10.5L14.5,26.4z" style="fill:#0D5FC3;"/>
</g>
</g>
<g>
<g>
<g>
<path d="M18.4,14.7v10.5h2.3v-0.7c0-1.7,1.4-3.1,3.2-3.1c1.7,0,3.1,1.4,3.1,3.2l0,0.6h1.9V14.7H18.4z        M23.8,20.8c-1.2,0-2.2-1-2.2-2.3s1-2.2,2.3-2.2s2.2,1,2.2,2.3S25,20.8,23.8,20.8z" style="fill:#4DE0F9;"/>
</g>
</g>
<g>
<g>
<path d="M23.8,21.4C23.8,21.4,23.8,21.4,23.8,21.4c-0.8,0-1.5-0.3-2-0.9s-0.8-1.3-0.8-2       c0-0.8,0.3-1.5,0.9-2c0.5-0.5,1.2-0.8,2-0.8c0,0,0,0,0,0c0.8,0,1.5,0.3,2,0.9s0.8,1.3,0.8,2c0,0.8-0.3,1.5-0.9,2       C25.2,21.1,24.5,21.4,23.8,21.4z M23.8,16.9c-0.4,0-0.8,0.2-1.2,0.5c-0.3,0.3-0.5,0.7-0.5,1.2c0,0.4,0.2,0.9,0.5,1.2       c0.3,0.3,0.7,0.5,1.2,0.5c0.4,0,0.9-0.2,1.2-0.5c0.3-0.3,0.5-0.7,0.5-1.2c0-0.4-0.2-0.9-0.5-1.2C24.7,17.1,24.2,16.9,23.8,16.9       C23.8,16.9,23.8,16.9,23.8,16.9z" style="fill:#0D5FC3;"/>
</g>
</g>
<g>
<g>
<path d="M27.5,25.2h-1.2v-0.6c0-0.7-0.2-1.3-0.7-1.8c-0.5-0.5-1.1-0.8-1.8-0.8c0,0,0,0,0,0       c-1.4,0-2.5,1.1-2.5,2.5v0.6h-1.2v-0.7c0-2,1.7-3.7,3.7-3.7c0,0,0,0,0,0c1,0,1.9,0.4,2.6,1.1c0.7,0.7,1.1,1.7,1.1,2.6V25.2z" style="fill:#0D5FC3;"/>
</g>
</g>
</g>
<g>
<g>
<g>
<rect height="1.2" style="fill:#0D5FC3;" width="2.6" x="32.2" y="16.3"/>
</g>
</g>
<g>
<g>
<rect height="1.2" style="fill:#0D5FC3;" width="2.6" x="32.2" y="19.4"/>
</g>
</g>
<g>
<g>
<rect height="1.2" style="fill:#0D5FC3;" width="2.6" x="32.2" y="22.4"/>
</g>
</g>
<g>
<g>
<rect height="1.2" style="fill:#0D5FC3;" width="4.7" x="36.7" y="16.3"/>
</g>
</g>
<g>
<g>
<rect height="1.2" style="fill:#0D5FC3;" width="6.7" x="36.7" y="19.4"/>
</g>
</g>
<g>
<g>
<rect height="1.2" style="fill:#0D5FC3;" width="6.7" x="36.7" y="22.4"/>
</g>
</g>
</g>
</g>
</g>
</svg>